<svg width="62" height="62" viewBox="0 0 62 62" fill="none" xmlns="http://www.w3.org/2000/svg">
<path d="M43.5938 1.35645C36.2313 1.35645 30.2734 7.26582 30.0313 14.8705C29.8375 21.8939 36.5703 31.1455 40.5906 35.9893C41.3172 36.8611 42.4313 37.3939 43.5938 37.3939C44.7563 37.3939 45.8219 36.8611 46.5969 35.9893C50.6172 31.0971 57.3984 21.8939 57.1563 14.8705C56.9141 7.26582 50.9563 1.35645 43.5938 1.35645ZM43.5938 19.7627C40.9297 19.7627 38.75 17.583 38.75 14.9189C38.75 12.2549 40.9297 10.0752 43.5938 10.0752C46.2578 10.0752 48.4375 12.2549 48.4375 14.9189C48.4375 17.583 46.2578 19.7627 43.5938 19.7627Z" fill="#FEB60D"/>
<path d="M6.00625 47.5655C6.2 48.1468 6.78125 48.5343 7.3625 48.5343C7.50781 48.5343 7.70156 48.4858 7.84688 48.4374L20.15 43.9812L26.1078 60.353C26.3016 60.9343 26.8828 61.3218 27.4641 61.3218C27.6094 61.3218 27.8031 61.2733 27.9484 61.2249C28.7234 60.9343 29.1109 60.1108 28.8203 59.3843L22.3781 41.5593L17.2438 27.464C16.9531 26.689 16.1297 26.3015 15.4031 26.5921C14.6281 26.8827 14.2406 27.7062 14.5313 28.4327L19.1813 41.1718L6.87813 45.628C6.10313 45.9671 5.71563 46.7905 6.00625 47.5655Z" fill="#FEB60D"/>
<path d="M27.2219 27.9484L24.025 29.1109L22.7172 25.4781C22.4266 24.7031 21.6031 24.3156 20.8766 24.6063C20.1016 24.8969 19.7141 25.7203 20.0047 26.4469L21.7969 31.4844C21.9906 32.0656 22.5719 32.4531 23.1531 32.4531C23.2984 32.4531 23.4922 32.4047 23.6375 32.3563L28.1906 30.7094C28.9656 30.4188 29.3531 29.5953 29.0625 28.8688C28.7719 28.1422 27.9484 27.7063 27.2219 27.9484Z" fill="#FEB60D"/>
<path d="M23.7828 36.9092L31.5813 58.2701C31.775 58.8514 32.3563 59.2389 32.9375 59.2389C33.0828 59.2389 33.2766 59.1904 33.4219 59.142C34.1969 58.8514 34.5844 58.0279 34.2938 57.3014L31.1453 48.6311L46.5969 43.0123L47.7594 46.2092C47.9531 46.7904 48.5344 47.1779 49.1156 47.1779C49.2609 47.1779 49.4547 47.1295 49.6 47.0811C50.375 46.7904 50.7625 45.967 50.4719 45.2404L49.3094 42.0436L52.5063 40.8811C53.2813 40.5904 53.6688 39.767 53.3781 39.0404C53.0875 38.2654 52.2641 37.8779 51.5375 38.1686L46.9844 39.8154L30.1766 45.967L27.0281 37.2967L32.4531 35.2623C33.2281 34.9717 33.5672 34.1482 33.325 33.3732C33.0344 32.5982 32.2109 32.2592 31.4359 32.5014L24.6063 35.0201C24.4987 35.0627 24.0734 35.2449 23.8346 35.722C23.5513 36.2858 23.7494 36.8225 23.7828 36.9092Z" fill="#FEB60D"/>
</svg>
