<svg width="34" height="34" viewBox="0 0 34 34" fill="none" xmlns="http://www.w3.org/2000/svg">
<path d="M5.84375 15.1837C5.84363 15.3883 5.87682 15.5916 5.94203 15.7856L6.62097 17.8234C6.74653 18.2027 6.98856 18.5327 7.31259 18.7664C7.63662 19.0001 8.02612 19.1256 8.42563 19.125H9.31228C9.37869 19.2652 9.44828 19.405 9.52478 19.5415C10.0815 20.562 10.8449 21.4552 11.766 22.1643C12.6872 22.8733 13.746 23.3827 14.875 23.6597V24.4375C13.044 24.4396 11.2886 25.1679 9.99387 26.4626C8.69916 27.7573 7.97086 29.5127 7.96875 31.3438V32.9375C7.96875 33.0784 8.02472 33.2135 8.12435 33.3132C8.22398 33.4128 8.3591 33.4688 8.5 33.4688H25.5C25.6409 33.4688 25.776 33.4128 25.8757 33.3132C25.9753 33.2135 26.0312 33.0784 26.0312 32.9375V31.3438C26.0291 29.5127 25.3008 27.7573 24.0061 26.4626C22.7114 25.1679 20.956 24.4396 19.125 24.4375V23.6597C20.2543 23.3829 21.3136 22.8737 22.2351 22.1646C23.1567 21.4556 23.9203 20.5622 24.4773 19.5415C24.5517 19.4044 24.6213 19.2652 24.6898 19.125H25.5744C25.9741 19.126 26.364 19.0008 26.6883 18.7672C27.0127 18.5335 27.255 18.2034 27.3806 17.824L28.0601 15.7856C28.2001 15.369 28.1903 14.9167 28.0324 14.5067C27.8745 14.0966 27.5784 13.7545 27.1952 13.5394L27.8779 11.152C28.0632 10.4991 28.1569 9.82362 28.1562 9.14494C28.156 7.80082 27.814 6.47884 27.1625 5.30319C26.511 4.12754 25.5713 3.13681 24.4317 2.42409C22.4523 1.18643 20.1648 0.530496 17.8303 0.531251H17.4415C16.4676 0.534071 15.5088 0.772543 14.6471 1.2263C13.7854 1.68006 13.0463 2.33563 12.4929 3.13703L11.6748 3.00103C10.9574 2.88154 10.2227 2.9197 9.52157 3.11287C8.82048 3.30604 8.16986 3.64957 7.61495 4.1196C7.06005 4.58962 6.61416 5.17486 6.30829 5.83462C6.00241 6.49438 5.84389 7.21285 5.84375 7.94006C5.84341 9.77534 6.13922 11.5987 6.71978 13.3397L6.78991 13.549C6.50306 13.715 6.26474 13.9533 6.09873 14.2401C5.93271 14.5269 5.8448 14.8523 5.84375 15.1837ZM8.42563 18.0625C8.24923 18.0626 8.07728 18.0072 7.93422 17.904C7.79116 17.8008 7.68427 17.6551 7.62875 17.4877L6.94928 15.4493C6.90719 15.323 6.89571 15.1886 6.91578 15.057C6.93585 14.9254 6.9869 14.8005 7.06473 14.6925C7.14255 14.5846 7.24492 14.4966 7.3634 14.436C7.48187 14.3754 7.61306 14.3437 7.74616 14.3438H8.5V15.5311C8.50092 16.3901 8.63368 17.2438 8.89366 18.0625H8.42563ZM24.9688 31.3438V32.4062H9.03125V31.3438C9.03324 30.1651 9.39129 29.0145 10.0585 28.0428C10.7257 27.0711 11.6709 26.3237 12.7702 25.8984C12.8729 26.949 13.363 27.9237 14.1448 28.6328C14.9267 29.3419 15.9445 29.7347 17 29.7347C18.0555 29.7347 19.0733 29.3419 19.8552 28.6328C20.637 27.9237 21.1271 26.949 21.2298 25.8984C22.3291 26.3237 23.2743 27.0711 23.9415 28.0428C24.6087 29.0145 24.9668 30.1651 24.9688 31.3438ZM20.1822 25.6009C20.156 26.4275 19.8093 27.2114 19.2154 27.7868C18.6215 28.3622 17.827 28.684 17 28.684C16.173 28.684 15.3785 28.3622 14.7846 27.7868C14.1907 27.2114 13.844 26.4275 13.8178 25.6009C14.1664 25.5352 14.5203 25.5014 14.875 25.5C14.875 26.0636 15.0989 26.6041 15.4974 27.0026C15.8959 27.4011 16.4364 27.625 17 27.625C17.5636 27.625 18.1041 27.4011 18.5026 27.0026C18.9011 26.6041 19.125 26.0636 19.125 25.5C19.4797 25.5014 19.8336 25.5352 20.1822 25.6009ZM18.0625 25.5C18.0625 25.7818 17.9506 26.052 17.7513 26.2513C17.552 26.4506 17.2818 26.5625 17 26.5625C16.7182 26.5625 16.448 26.4506 16.2487 26.2513C16.0494 26.052 15.9375 25.7818 15.9375 25.5V23.8494C16.2488 23.8858 16.5618 23.9047 16.8752 23.9062H17.1248C17.4382 23.9047 17.7512 23.8858 18.0625 23.8494V25.5ZM17.1248 22.8438H16.8752C14.9357 22.8438 13.0757 22.0733 11.7043 20.7019C10.3329 19.3305 9.5625 17.4705 9.5625 15.5311V13.9825L11.6073 11.1207L12.2745 12.4562C12.3057 12.5187 12.3489 12.5744 12.4016 12.6202C12.4543 12.6659 12.5155 12.7009 12.5817 12.723C12.6479 12.7451 12.7178 12.7539 12.7874 12.749C12.8571 12.744 12.925 12.7254 12.9875 12.6942C14.485 11.9451 15.6405 10.6532 16.2185 9.08172L16.4119 8.432L16.7025 9.6576C17.0003 10.7014 17.6301 11.6198 18.4966 12.2736C19.3631 12.9275 20.419 13.2812 21.5045 13.2813H24.4375V15.5311C24.4374 17.4705 23.6669 19.3304 22.2955 20.7018C20.9242 22.0731 19.0642 22.8436 17.1248 22.8438ZM27.0507 15.4493L26.3707 17.4882C26.3153 17.6556 26.2085 17.8011 26.0655 17.9042C25.9225 18.0073 25.7507 18.0627 25.5744 18.0625H25.1063C25.3663 17.2438 25.4991 16.3901 25.5 15.5311V14.3438H26.2538C26.3869 14.3437 26.5181 14.3754 26.6366 14.436C26.7551 14.4966 26.8574 14.5846 26.9353 14.6925C27.0131 14.8005 27.0641 14.9254 27.0842 15.057C27.1043 15.1886 27.0928 15.323 27.0507 15.4493ZM8.32628 4.90981C8.76179 4.54574 9.27097 4.2803 9.81882 4.13173C10.3667 3.98317 10.9402 3.95501 11.5 4.04919L12.6629 4.24256C12.768 4.26049 12.876 4.24618 12.9729 4.20152C13.0697 4.15686 13.1507 4.08393 13.2053 3.99234C13.6461 3.26248 14.2673 2.65841 15.0093 2.23831C15.7512 1.81821 16.5888 1.59623 17.4415 1.59375H17.8303C19.9657 1.59301 22.0582 2.19318 23.8685 3.32563C24.8555 3.94253 25.6693 4.8003 26.2335 5.8183C26.7977 6.83629 27.0937 7.98105 27.0938 9.14494C27.0938 9.72495 27.013 10.3021 26.8536 10.8598L26.1614 13.2813H25.5V12.75C25.5 12.6091 25.444 12.474 25.3444 12.3744C25.2448 12.2747 25.1096 12.2188 24.9688 12.2188H21.5045C20.6545 12.2184 19.8275 11.9426 19.1475 11.4327C18.4675 10.9228 17.971 10.2062 17.7326 9.39038L16.9888 6.25228C16.9619 6.13832 16.8981 6.03645 16.8073 5.96251C16.7164 5.88857 16.6037 5.84671 16.4867 5.84344C16.3696 5.84017 16.2548 5.87567 16.16 5.94442C16.0652 6.01317 15.9957 6.11131 15.9625 6.22359L15.215 8.74491C14.7914 9.87882 14.0056 10.8414 12.9795 11.4835L12.1656 9.85628C12.1247 9.77437 12.0632 9.70444 11.9872 9.65329C11.9113 9.60213 11.8234 9.57148 11.7321 9.56432C11.6407 9.55716 11.5491 9.57372 11.4661 9.6124C11.3831 9.65109 11.3115 9.71058 11.2583 9.7851L8.75819 13.2813H7.82053L7.72809 13.0039C7.18355 11.3712 6.90603 9.66124 6.90625 7.94006C6.90543 7.3616 7.03227 6.79009 7.27773 6.26629C7.52319 5.7425 7.88122 5.27932 8.32628 4.90981Z" fill="#9771FF"/>
</svg>
