<svg width="30" height="30" viewBox="0 0 30 30" fill="none" xmlns="http://www.w3.org/2000/svg">
<g clip-path="url(#clip0_7_114)">
<path d="M14.9477 3.81211C15.2736 3.81211 15.5378 3.54791 15.5378 3.22201V0.590098C15.5378 0.264199 15.2736 0 14.9477 0C14.6218 0 14.3576 0.264199 14.3576 0.590098V3.22201C14.3577 3.54791 14.6219 3.81211 14.9477 3.81211Z" fill="#FEB60D"/>
<path d="M29.3719 20.2726L28.3294 19.2331C27.9586 18.8627 27.4643 18.6587 26.9377 18.6587C26.601 18.6587 26.2777 18.7425 25.9912 18.8995L24.0268 16.9374L24.1225 16.8418C24.9194 16.0433 24.9191 14.7457 24.1224 13.9499C23.8377 13.6647 23.4825 13.4745 23.0952 13.3945C23.1486 13.2104 23.1766 13.0176 23.1766 12.8204C23.1766 12.2722 22.9637 11.7582 22.5783 11.3744C22.2935 11.0891 21.9383 10.899 21.5511 10.8189C21.6044 10.6349 21.6324 10.4422 21.6324 10.2448C21.6324 9.69661 21.4195 9.18268 21.0334 8.79825C20.7419 8.50704 20.3835 8.3227 20.0071 8.24425C20.2084 7.55009 20.0364 6.76909 19.4903 6.22206C19.0357 5.76942 18.4189 5.57489 17.8245 5.63794L13.9318 4.90112C13.3382 4.7885 12.5968 4.71403 12.1288 5.14089C12.0992 5.16784 12.0691 5.19884 12.0395 5.23335C11.3139 4.96885 10.4675 5.12635 9.88645 5.70678C9.50096 6.0918 9.28862 6.60555 9.28862 7.15341C9.28862 7.35075 9.31657 7.54346 9.36983 7.72757C8.98299 7.80755 8.62821 7.99751 8.34444 8.2818C7.95819 8.66647 7.7452 9.17964 7.74479 9.72684C7.74461 9.92466 7.77268 10.118 7.82624 10.3026C7.43922 10.3824 7.0842 10.572 6.79956 10.8563C6.41331 11.2421 6.20061 11.7562 6.20061 12.3037C6.20061 12.7232 6.32583 13.1227 6.55786 13.4602C6.26489 13.5595 5.99653 13.7248 5.77182 13.9493C4.97436 14.7457 4.97407 16.0434 5.77235 16.8431L5.86768 16.938L3.90303 18.899C3.1729 18.5553 2.27331 18.6841 1.67079 19.2858L0.6277 20.326C0.256685 20.6965 0.0524268 21.1908 0.0523682 21.7178C0.0523682 22.2448 0.256685 22.7391 0.6277 23.1097L1.92948 24.4099C2.16004 24.6402 2.5337 24.64 2.76397 24.4094C2.9943 24.1789 2.99407 23.8052 2.7635 23.5749L1.46172 22.2748C1.31395 22.1272 1.23256 21.9293 1.23256 21.7178C1.23256 21.5064 1.31395 21.3086 1.46137 21.1614L2.50452 20.1211C2.76514 19.8608 3.16405 19.822 3.46698 20.0031C3.48831 20.0352 3.51297 20.0657 3.54122 20.094C3.59178 20.1446 3.6495 20.1835 3.71079 20.2119L9.6928 26.1851C9.72122 26.2471 9.76024 26.3054 9.81116 26.3563C9.86073 26.406 9.91727 26.4443 9.97727 26.4726C10.1038 26.6156 10.1737 26.7983 10.1737 26.9932C10.1737 27.2047 10.0923 27.4025 9.94452 27.5501L8.90243 28.5909C8.59452 28.8975 8.09366 28.8974 7.78668 28.5919L6.48491 27.29C6.25446 27.0595 5.88086 27.0595 5.65041 27.29C5.41997 27.5204 5.41997 27.894 5.65041 28.1245L6.95313 29.4273C7.33657 29.8091 7.84012 30 8.34391 30C8.84782 30 9.35196 29.8089 9.73586 29.4266L10.7786 28.3851C11.1496 28.0145 11.3539 27.5202 11.3539 26.9932C11.3539 26.6171 11.2493 26.2579 11.0549 25.9482L13.266 23.7398C13.2683 23.7374 13.2706 23.735 13.2731 23.7326C13.5262 23.4708 14.2313 23.5198 14.9131 23.5672C15.3976 23.6008 15.9377 23.6383 16.4654 23.5775L18.8867 25.9959C18.7299 26.2819 18.6462 26.6048 18.6462 26.941C18.6462 27.4674 18.8505 27.9615 19.2215 28.3321L20.2643 29.3736C20.6351 29.7439 21.1293 29.948 21.6559 29.948C22.1825 29.948 22.6768 29.744 23.0476 29.3736L29.3723 23.0566C29.7433 22.686 29.9476 22.1917 29.9476 21.6647C29.9475 21.1378 29.7432 20.6435 29.3719 20.2726ZM13.7121 6.06069L16.2719 6.5452L14.7397 8.07678C14.5027 7.96288 14.1779 7.75042 13.8215 7.40952C13.3337 6.94288 12.9848 6.40411 12.953 6.06807C12.953 6.0679 12.953 6.06772 12.953 6.06755C12.953 6.06749 12.9529 6.06743 12.9529 6.06737C12.9506 6.04323 12.95 6.02395 12.9503 6.00925C13.0275 5.9905 13.2324 5.96969 13.7121 6.06069ZM10.7204 6.5418C11.0194 6.24315 11.4838 6.2087 11.8216 6.43745C12.013 7.24007 12.6977 7.96751 13.0057 8.26223C13.234 8.48067 13.9665 9.13557 14.7058 9.31557C14.8058 9.45895 14.8602 9.62987 14.8602 9.81022C14.8602 10.0425 14.7709 10.2598 14.6081 10.4224C14.4457 10.5851 14.2281 10.6746 13.9954 10.6746C13.7626 10.6746 13.545 10.5851 13.3819 10.4216L13.3819 10.4216L13.3816 10.4213L10.7204 7.76489C10.5581 7.60288 10.4688 7.38567 10.4688 7.15341C10.4688 6.92108 10.5582 6.70387 10.7204 6.5418ZM9.17846 9.11682C9.34083 8.95423 9.55815 8.86464 9.79053 8.86464C10.0232 8.86464 10.2412 8.9544 10.4047 9.11764L12.5475 11.2563C12.885 11.5942 12.885 12.1442 12.5487 12.481C12.3855 12.6436 12.1672 12.7331 11.934 12.7331C11.7009 12.7331 11.4825 12.6436 11.32 12.4817L11.3199 12.4816L9.69426 10.8563C9.69174 10.8538 9.68899 10.8514 9.68641 10.8489L9.17782 10.3405C9.01463 10.1775 8.92481 9.95987 8.92499 9.72772C8.92522 9.49634 9.01475 9.27983 9.17846 9.11682ZM7.63358 11.6913C7.79606 11.5291 8.01385 11.4397 8.24694 11.4397C8.47809 11.4397 8.69401 11.5278 8.85579 11.6872L10.4865 13.3171C10.649 13.4791 10.7386 13.696 10.7386 13.9281C10.7386 14.16 10.649 14.377 10.4858 14.5396C10.3234 14.7018 10.1058 14.7912 9.87315 14.7912C9.64012 14.7912 9.42186 14.7016 9.2592 14.5396L8.66805 13.9492C8.66793 13.949 8.66776 13.9489 8.66764 13.9488L7.63364 12.916C7.47063 12.7532 7.38086 12.5357 7.38086 12.3036C7.38086 12.0716 7.47063 11.8541 7.63358 11.6913ZM6.60584 14.7842C6.76903 14.6212 6.98711 14.5315 7.21991 14.5315C7.45264 14.5315 7.67067 14.6212 7.83379 14.7841L8.42577 15.3753C8.58842 15.5373 8.67795 15.7543 8.67795 15.9863C8.67795 16.2183 8.58836 16.4352 8.42454 16.5985C8.26217 16.7611 8.04461 16.8507 7.81188 16.8507C7.57909 16.8507 7.36153 16.7611 7.19799 16.5973L7.12387 16.5235C7.12288 16.5225 7.12211 16.5214 7.12118 16.5205C7.12006 16.5194 7.11889 16.5185 7.11778 16.5174L6.60643 16.0081C6.26899 15.6699 6.2687 15.121 6.60584 14.7842ZM18.6313 21.4908C18.4009 21.2601 18.0273 21.26 17.7968 21.4902L17.2718 22.0146C16.7729 22.5135 15.869 22.4507 14.9948 22.39C14.0456 22.324 13.0639 22.2559 12.4287 22.9081L10.2552 25.079L4.81985 19.6516L6.74336 17.7316C7.06129 17.9265 7.42815 18.0309 7.812 18.0309C8.36038 18.0309 8.87459 17.8183 9.25868 17.4336C9.64534 17.0485 9.85833 16.5346 9.85833 15.9864C9.85833 15.9813 9.85797 15.9762 9.85797 15.9711C9.86307 15.9712 9.86817 15.9715 9.87327 15.9715C10.4209 15.9715 10.9347 15.7595 11.3193 15.3754C11.706 14.9903 11.919 14.4763 11.919 13.9282C11.919 13.9231 11.9186 13.9181 11.9186 13.913C11.9238 13.913 11.9289 13.9133 11.9341 13.9133C12.4816 13.9133 12.9957 13.7016 13.3829 13.316C13.7848 12.9134 13.9836 12.3834 13.9798 11.8544C13.9851 11.8545 13.9904 11.8548 13.9956 11.8548C14.544 11.8547 15.0582 11.6422 15.4428 11.2568C15.8283 10.8718 16.0407 10.3581 16.0407 9.81022C16.0407 9.42708 15.9365 9.06081 15.7423 8.74352L17.4282 7.05831C17.5538 6.93321 17.7087 6.85469 17.8711 6.82229C17.8887 6.82042 17.906 6.8176 17.9232 6.81421C18.1837 6.77829 18.4573 6.85868 18.6565 7.05708C18.9939 7.3951 18.9939 7.94507 18.6577 8.28186L18.1442 8.79321C18.1425 8.79491 18.1407 8.79643 18.139 8.79813L17.5476 9.38852C17.317 9.6188 17.3168 9.99245 17.5471 10.223C17.7775 10.4536 18.1511 10.4538 18.3816 10.2235L18.8971 9.70874C18.8972 9.70862 18.8973 9.7085 18.8975 9.70839L18.9754 9.63075C19.3138 9.29548 19.862 9.29618 20.2 9.63374C20.3627 9.79569 20.4522 10.0127 20.4522 10.2447C20.4522 10.4767 20.3627 10.6936 20.1987 10.8569L19.6823 11.3743C19.6823 11.3744 19.6822 11.3744 19.6822 11.3746L19.0908 11.9635C18.8599 12.1935 18.8591 12.5671 19.0891 12.798C19.3191 13.0289 19.6927 13.0296 19.9236 12.7997L20.5176 12.2081C20.68 12.0454 20.8976 11.9559 21.1303 11.9559C21.3631 11.9559 21.5807 12.0454 21.7442 12.2092C21.9069 12.3712 21.9964 12.5882 21.9964 12.8202C21.9964 13.0522 21.9069 13.2692 21.7433 13.4321L20.7138 14.462C20.4834 14.6925 20.4835 15.0661 20.7139 15.2965C20.8292 15.4117 20.9801 15.4692 21.1311 15.4692C21.2822 15.4692 21.4332 15.4115 21.5484 15.2963L22.053 14.7916C22.0558 14.7888 22.059 14.7864 22.0618 14.7835C22.2242 14.6209 22.4417 14.5314 22.6745 14.5314C22.9073 14.5314 23.1248 14.6209 23.2878 14.7841C23.6249 15.1209 23.6246 15.6699 23.2878 16.0073L22.7748 16.5197C22.7746 16.5199 22.7744 16.52 22.7742 16.5202C22.774 16.5204 22.7739 16.5206 22.7737 16.5208L21.9595 17.334C21.7289 17.5643 21.7287 17.938 21.9589 18.1686C22.0742 18.2839 22.2254 18.3416 22.3765 18.3416C22.5273 18.3416 22.6783 18.2841 22.7935 18.1691L23.1917 17.7713L25.1006 19.6779L19.6657 25.1061L17.7184 23.1612C17.8541 23.0739 17.984 22.9712 18.106 22.8493L18.6307 22.3252C18.8614 22.095 18.8616 21.7213 18.6313 21.4908ZM28.5382 22.2215L22.2135 28.5385C22.0656 28.6863 21.8675 28.7677 21.6559 28.7677C21.4442 28.7677 21.2462 28.6863 21.0982 28.5385L20.0554 27.497C19.9076 27.3494 19.8262 27.152 19.8262 26.941C19.8262 26.73 19.9076 26.5326 20.0554 26.385L26.3801 20.068C26.5281 19.9202 26.7261 19.8388 26.9378 19.8388C27.1494 19.8388 27.3474 19.9202 27.4958 20.0683L28.5382 21.1079C28.686 21.2555 28.7674 21.4532 28.7674 21.6647C28.7673 21.8763 28.686 22.074 28.5382 22.2215Z" fill="#FEB60D"/>
<path d="M7.11197 3.3147C7.22717 3.42967 7.37799 3.48709 7.52881 3.48709C7.67998 3.48709 7.83121 3.42931 7.94647 3.31383C8.17668 3.08314 8.17633 2.70955 7.94565 2.47933L5.79537 0.333338C5.56475 0.103123 5.19109 0.103416 4.96088 0.334158C4.73066 0.564842 4.73102 0.938435 4.9617 1.16865L7.11197 3.3147Z" fill="#FEB60D"/>
<path d="M22.3665 3.48707C22.5174 3.48707 22.6683 3.42953 22.7835 3.31451L24.9322 1.16845C25.1627 0.938179 25.163 0.564526 24.9326 0.33396C24.7024 0.103394 24.3288 0.103159 24.0981 0.333491L21.9495 2.47955C21.7189 2.70982 21.7187 3.08347 21.949 3.31404C22.0643 3.42941 22.2154 3.48707 22.3665 3.48707Z" fill="#FEB60D"/>
<path d="M3.68082 25.383C3.45236 25.6153 3.45553 25.989 3.68797 26.2174L3.68967 26.2191C3.80434 26.3318 3.95322 26.388 4.10205 26.388C4.2548 26.388 4.40756 26.3288 4.52328 26.2111C4.75174 25.9787 4.74769 25.6043 4.51531 25.3758C4.28299 25.1473 3.90939 25.1506 3.68082 25.383Z" fill="#FEB60D"/>
<path d="M20.0746 20.6406C20.1643 20.6406 20.2554 20.6201 20.3409 20.5771C20.6319 20.4303 20.7487 20.0754 20.602 19.7845C20.4553 19.4935 20.1003 19.3765 19.8094 19.5233L19.8061 19.525C19.5152 19.6717 19.3999 20.0258 19.5466 20.3167C19.6502 20.5223 19.8586 20.6406 20.0746 20.6406Z" fill="#FEB60D"/>
</g>
<defs>
<clipPath id="clip0_7_114">
<rect width="30" height="30" fill="white"/>
</clipPath>
</defs>
</svg>
