<svg width="34" height="34" viewBox="0 0 34 34" fill="none" xmlns="http://www.w3.org/2000/svg">
<g clip-path="url(#clip0_7_127)">
<path d="M30.2515 13.2813C30.3588 13.2813 30.4661 13.2483 30.5575 13.184C30.7233 13.0666 30.8088 12.8648 30.7759 12.6639L30.3174 9.8531L32.2549 7.86728C32.394 7.72438 32.4419 7.51666 32.3781 7.32753C32.3144 7.13841 32.1513 7.00134 31.9547 6.97106L29.2979 6.56466L28.1053 4.02369C28.0181 3.83828 27.8311 3.71875 27.625 3.71875C27.4189 3.71875 27.2319 3.83828 27.1442 4.02422L25.9516 6.56519L23.2948 6.97159C23.0982 7.00188 22.9346 7.13894 22.8714 7.32806C22.8082 7.51719 22.856 7.72491 22.9946 7.86781L24.9321 9.85363L24.4736 12.6645C24.4407 12.8653 24.5262 13.0672 24.692 13.1846C24.8577 13.302 25.0782 13.3142 25.2551 13.2154L27.625 11.9048L29.9949 13.2148C30.0746 13.2595 30.1633 13.2813 30.2515 13.2813ZM27.8816 10.8333C27.8019 10.7892 27.7137 10.7668 27.625 10.7668C27.5363 10.7668 27.4481 10.7892 27.3684 10.8333L25.6987 11.756L26.0244 9.76013C26.0514 9.59384 25.9978 9.42438 25.8804 9.30378L24.4774 7.86569L26.392 7.57297C26.5668 7.54641 26.7171 7.43378 26.7925 7.27388L27.625 5.50056L28.4569 7.27388C28.5324 7.43431 28.6827 7.54694 28.8575 7.57297L30.7721 7.86569L29.3691 9.30378C29.2512 9.42491 29.198 9.59384 29.2251 9.76013L29.5508 11.756L27.8816 10.8333Z" fill="#01B5C5"/>
<path d="M27.0938 0.53125H28.1562V2.65625H27.0938V0.53125Z" fill="#01B5C5"/>
<path d="M31.0558 4.31714L32.5584 2.81454L33.3097 3.56584L31.8071 5.06844L31.0558 4.31714Z" fill="#01B5C5"/>
<path d="M21.7141 3.56494L22.4654 2.81364L23.968 4.31624L23.2167 5.06754L21.7141 3.56494Z" fill="#01B5C5"/>
<path d="M22.6355 11.4691L21.6596 10.2865C21.5199 10.1176 21.292 10.0517 21.0816 10.1208L15.5646 11.9599C15.7622 11.6231 15.8977 11.2443 15.9295 10.8294C16.0422 9.36957 14.9457 8.08925 13.4858 7.9761C12.7803 7.92457 12.0918 8.14504 11.5531 8.60722C11.0139 9.06835 10.6872 9.71222 10.6324 10.4198C10.583 11.0547 10.77 11.6672 11.1409 12.1772C10.9071 12.1804 10.6728 12.2224 10.4603 12.3254L3.53229 14.9195C3.27782 15.0146 3.13651 15.2856 3.20398 15.5491L3.60932 17.1317C3.68051 17.4095 3.95941 17.5816 4.23991 17.5184L8.91385 16.4772L8.36985 18.6792L5.59248 22.4415L3.13013 22.739C2.98616 22.7565 2.85495 22.8325 2.76835 22.9488C2.68123 23.0657 2.64616 23.2123 2.66954 23.3558L3.03504 25.5153C3.08073 25.7836 3.32457 25.9711 3.59338 25.9568L7.34241 25.714C7.49329 25.7039 7.63301 25.6306 7.72651 25.5116L9.6661 23.0392L8.09679 28.8765C8.05588 29.029 8.0851 29.1921 8.17595 29.3212C8.26679 29.4503 8.41076 29.5316 8.56854 29.5443L11.2168 29.7494C11.2317 29.7494 11.245 29.7499 11.2588 29.7499C11.4973 29.7499 11.7098 29.5889 11.772 29.3552L15.3829 15.7759L22.4607 12.2835C22.6063 12.2118 22.7115 12.0773 22.7449 11.9185C22.7795 11.7602 22.7391 11.5944 22.6355 11.4691ZM12.2448 9.41419C12.5359 9.1645 12.8988 9.03116 13.2781 9.03116C13.32 9.03116 13.362 9.03275 13.404 9.03594C14.2795 9.10394 14.9377 9.87213 14.8702 10.7482C14.8113 11.5073 14.2248 12.0959 13.5012 12.2001L13.0422 12.1937C12.6645 12.1368 12.3213 11.9546 12.07 11.6614C11.7932 11.3384 11.6588 10.9261 11.6918 10.5017C11.7247 10.0777 11.9213 9.69097 12.2448 9.41419ZM14.6965 14.9302C14.5589 14.9976 14.4574 15.1214 14.4181 15.2702L10.8588 28.655L9.28945 28.5333L11.3688 20.7999C11.4341 20.5561 11.3188 20.3 11.093 20.1869C10.8673 20.0737 10.5937 20.1353 10.4375 20.334L7.03748 24.668L4.00351 24.864L3.8112 23.7261L5.94735 23.4684C6.09238 23.4509 6.22413 23.3738 6.31126 23.2564L9.28785 19.2243C9.32929 19.1685 9.35957 19.1042 9.37604 19.0362L10.1517 15.8992C10.1958 15.7207 10.1442 15.5321 10.0157 15.4003C9.88763 15.2691 9.69957 15.2117 9.52001 15.2537L4.51138 16.3698L4.35201 15.7478L10.8593 13.3109C10.8784 13.3035 10.897 13.2955 10.9156 13.2859C11.0027 13.2408 11.1026 13.2222 11.2333 13.2307L14.8676 13.2812C14.9175 13.2806 14.986 13.2721 15.0429 13.2535L21.072 11.2443L21.3892 11.6279L14.6965 14.9302Z" fill="#01B5C5"/>
<path d="M4.22876 27.7738L3.20876 27.4763C3.10623 27.8291 2.76676 28.7131 1.84026 29.3022C1.42801 29.5641 0.966884 29.7251 0.47229 29.7803L0.590759 30.8365C1.24792 30.7626 1.86045 30.548 2.41029 30.1984C3.6412 29.4154 4.09223 28.2418 4.22876 27.7738Z" fill="#01B5C5"/>
<path d="M3.40479 31.4462C2.69982 31.9631 1.89019 32.2781 0.999817 32.3844L1.12519 33.4395C2.1845 33.3136 3.19016 32.9204 4.03272 32.3031C5.65782 31.1131 6.20129 29.4652 6.36013 28.8128L5.32791 28.5615C5.19616 29.1018 4.74725 30.4634 3.40479 31.4462Z" fill="#01B5C5"/>
<path d="M30.8125 29.75H31.875V30.8125H30.8125V29.75Z" fill="#01B5C5"/>
<path d="M30.8125 31.875H31.875V32.9375H30.8125V31.875Z" fill="#01B5C5"/>
<path d="M31.875 30.8125H32.9375V31.875H31.875V30.8125Z" fill="#01B5C5"/>
<path d="M29.75 30.8125H30.8125V31.875H29.75V30.8125Z" fill="#01B5C5"/>
<path d="M24.4375 25.5H25.5V26.5625H24.4375V25.5Z" fill="#01B5C5"/>
<path d="M24.4375 27.625H25.5V28.6875H24.4375V27.625Z" fill="#01B5C5"/>
<path d="M25.5 26.5625H26.5625V27.625H25.5V26.5625Z" fill="#01B5C5"/>
<path d="M23.375 26.5625H24.4375V27.625H23.375V26.5625Z" fill="#01B5C5"/>
</g>
<defs>
<clipPath id="clip0_7_127">
<rect width="34" height="34" fill="white"/>
</clipPath>
</defs>
</svg>
